<?xml version="1.0" encoding="UTF-8" standalone="no"?> <svg width="64" height="64" viewBox="0 0 64 64" fill="none" xmlns="http://www.w3.org/2000/svg">
<path d="M32 5.5C24.9742 5.50794 18.2384 8.30245 13.2704 13.2704C8.30245 18.2384 5.50794 24.9742 5.5 32C7 67.16 57.05 67.15 58.5 32C58.4921 24.9742 55.6976 18.2384 50.7296 13.2704C45.7616 8.30245 39.0258 5.50794 32 5.5V5.5ZM46.13 22.66L30.06 43.19C29.9208 43.3705 29.742 43.5167 29.5375 43.6173C29.3329 43.7179 29.108 43.7702 28.88 43.7702C28.652 43.7702 28.4271 43.7179 28.2225 43.6173C28.018 43.5167 27.8392 43.3705 27.7 43.19L17.87 30.69C17.6385 30.376 17.5385 29.9841 17.5911 29.5975C17.6438 29.211 17.845 28.8601 18.152 28.6195C18.459 28.3788 18.8478 28.2672 19.2357 28.3084C19.6237 28.3495 19.9803 28.5402 20.23 28.84L28.87 39.84L43.76 20.84C44.0137 20.5641 44.3616 20.3933 44.735 20.361C45.1084 20.3288 45.4804 20.4375 45.7776 20.6658C46.0749 20.894 46.2759 21.2253 46.3411 21.5944C46.4064 21.9635 46.331 22.3437 46.13 22.66V22.66Z" fill="black"/>
</svg>
